<svg width="64" height="64" viewBox="0 0 64 64" fill="none" xmlns="http://www.w3.org/2000/svg">
<path d="M38.4312 9.59092C38.2801 10.9693 37.9175 11.7569 36.3764 14.0473C34.5431 16.7626 33.9689 18.2446 33.8682 20.5039C33.8279 21.6024 33.8481 21.9444 34.0294 22.7217C34.3719 24.1726 34.7647 24.8256 36.467 26.7221C38.119 28.5669 38.532 29.1783 38.9349 30.4012C39.1666 31.106 39.2069 31.3961 39.2069 32.3185C39.1968 34.2772 38.5823 35.894 37.3635 37.2309C36.2857 38.4124 35.2784 38.9927 33.8178 39.3036C30.8363 39.9358 27.8245 38.5056 26.4848 35.8318C25.8703 34.5985 25.7293 33.956 25.7394 32.3703C25.7394 31.0438 25.7696 30.8572 26.0214 30.1421C26.5553 28.6705 26.8675 28.1938 28.2979 26.6703C29.8189 25.0536 30.111 24.5665 30.1916 23.5405C30.252 22.701 30.0304 22.0792 29.4261 21.4159C28.6101 20.5246 27.482 20.3692 26.3135 21.0117C24.9738 21.7579 23.0801 23.7685 22.0325 25.5821C20.6324 27.9968 20.0381 30.3494 20.169 32.9403C20.3 35.4483 21.0555 37.6869 22.4657 39.7286C24.7119 42.962 28.0158 44.7964 31.8939 44.9311C33.556 44.9933 34.523 44.8793 35.9936 44.4233C37.9981 43.8119 39.5695 42.8273 41.1409 41.1898C43.8203 38.4124 45.1096 34.8162 44.7167 31.1992C44.4246 28.4321 43.4375 26.2868 41.4028 23.9757C39.912 22.2761 39.6098 21.4263 39.922 19.8821C40.1436 18.825 40.4458 18.2342 41.443 16.9181C43.3267 14.4204 43.6087 13.8193 43.4073 12.7208C43.2058 11.6429 42.4503 10.7724 41.1006 10.0469C40.5163 9.73601 38.7032 9.00019 38.5219 9.00019C38.5118 9.00019 38.4715 9.26964 38.4312 9.59092Z" fill="#C5192D"/>
<path d="M23.6037 10.0784C19.5443 11.6952 15.4547 15.167 12.866 19.2089C11.0025 22.1211 9.74339 25.3856 9.13901 28.8989C8.92748 30.1322 8.96777 34.7959 9.18938 36.0499C10.378 42.5376 14.105 48.362 19.4335 52.0307C21.428 53.4091 24.4196 54.7667 26.7767 55.3678C28.892 55.9171 29.587 55.9896 32.4276 56C34.7544 56 35.2581 55.9689 36.3057 55.772C43.9309 54.3418 50.3876 49.3569 53.7318 42.3199C54.8701 39.9259 55.4543 38.0086 55.8069 35.5939C56.0486 33.8735 56.0688 30.9613 55.8371 29.3031C55.3133 25.3856 53.6512 21.3541 51.4755 18.6596C50.9013 17.9652 50.7603 17.8823 50.7603 18.245C50.7502 18.6078 50.4178 19.2814 50.0854 19.6027C49.9243 19.7581 49.4206 20.038 48.9774 20.2349C47.9097 20.6909 47.5974 20.9292 47.3355 21.4992C47.0736 22.0382 47.1038 22.5563 47.4161 23.1782C47.5168 23.3854 47.8895 24.1109 48.232 24.7742C48.9573 26.194 49.4609 27.6553 49.7732 29.2617C50.1056 30.9613 50.1056 33.9979 49.7732 35.5317C49.1587 38.3195 48.1011 40.755 46.6405 42.7345C45.8951 43.7397 44.1323 45.5534 43.1553 46.3099C41.3522 47.709 39.9017 48.507 37.9173 49.191C36.0539 49.844 34.966 50.0409 32.8809 50.1031C31.239 50.1549 30.9267 50.1341 29.6072 49.8958C21.982 48.5278 16.2203 42.5894 15.0518 34.858C14.8101 33.262 14.8906 30.7644 15.2331 29.0855C16.3915 23.4994 19.2321 19.4058 24.0469 16.3899C24.6412 16.0168 25.4169 15.5608 25.7795 15.3743C27.0084 14.7317 27.5825 13.8405 27.5926 12.5968C27.5926 10.493 25.6687 9.27007 23.6037 10.0784Z" fill="#C5192D"/>
</svg>
